<?xml version="1.0" standalone="no"?>
<!DOCTYPE svg PUBLIC "-//W3C//DTD SVG 20010904//EN"
 "http://www.w3.org/TR/2001/REC-SVG-20010904/DTD/svg10.dtd">
<svg version="1.0" xmlns="http://www.w3.org/2000/svg"
 width="225.000000pt" height="225.000000pt" viewBox="0 0 225.000000 225.000000"
 preserveAspectRatio="xMidYMid meet">

<g transform="translate(0.000000,225.000000) scale(0.100000,-0.100000)"
fill="#000000" stroke="none">
<path d="M1723 2056 c-39 -13 -93 -36 -120 -51 -100 -58 -91 -56 -183 -38
-116 21 -359 21 -465 -1 l-80 -17 -112 57 c-90 46 -123 58 -171 62 -58 4 -61
3 -75 -25 -24 -46 -32 -146 -17 -223 l13 -67 -30 -44 c-87 -126 -113 -238 -94
-390 24 -188 90 -312 207 -391 73 -50 210 -101 301 -113 59 -8 70 -16 47 -36
-20 -17 -50 -75 -59 -117 -5 -25 -15 -37 -39 -47 -58 -25 -129 -29 -187 -11
-63 19 -99 48 -163 133 -26 35 -66 74 -89 87 -52 31 -111 40 -127 21 -9 -11 2
-27 54 -76 50 -47 75 -81 107 -145 45 -91 85 -134 158 -167 38 -17 66 -21 164
-21 l119 0 -4 -123 c-2 -97 -6 -126 -18 -133 -10 -6 107 -10 324 -10 270 0
336 3 328 13 -6 7 -12 105 -14 242 -4 201 -7 236 -24 278 -11 26 -27 56 -37
67 -25 30 -21 38 26 45 79 13 222 56 272 83 67 36 154 127 188 195 45 93 61
170 61 302 1 142 -14 197 -80 295 -42 63 -43 66 -33 110 13 53 6 205 -11 242
-10 22 -37 39 -60 37 -3 0 -37 -10 -77 -23z"/>
</g>
</svg>
